<svg width="16" height="16" viewBox="0 0 16 16" fill="none" xmlns="http://www.w3.org/2000/svg">
<path d="M15.7759 1.42077L14.6707 0.328664C14.3716 0.0295981 13.8775 0.0295981 13.5654 0.328664L8.05222 5.84174L2.43512 0.224641C2.13593 -0.0745547 1.64182 -0.0745547 1.32988 0.224641L0.224641 1.32988C-0.0745547 1.62895 -0.0745547 2.12306 0.224641 2.43512L5.82887 8.03935L0.328663 13.5656C0.0295981 13.8646 0.0295981 14.3587 0.328663 14.6708L1.43391 15.776C1.73297 16.0751 2.22708 16.0751 2.53915 15.776L8.05222 10.2628L13.5654 15.776C13.8645 16.0751 14.3586 16.0751 14.6707 15.776L15.7759 14.6708C16.075 14.3717 16.075 13.8776 15.7759 13.5656L10.2497 8.05235L15.7629 2.53928C16.075 2.22695 16.075 1.73284 15.7759 1.42077Z" fill="white"/>
</svg>
